<svg xmlns="http://www.w3.org/2000/svg" version="1.1" xmlns:xlink="http://www.w3.org/1999/xlink" xmlns:svgjs="http://svgjs.dev/svgjs" width="1500" height="1500" viewBox="0 0 1500 1500"><rect width="1500" height="1500" fill="#ffffff"></rect><g transform="matrix(0.6666666666666666,0,0,0.6666666666666666,248.7765957446809,596.9354441739131)"><svg viewBox="0 0 376 115" data-background-color="#ffffff" preserveAspectRatio="xMidYMid meet" height="458" width="1500" xmlns="http://www.w3.org/2000/svg" xmlns:xlink="http://www.w3.org/1999/xlink"><g id="tight-bounds" transform="matrix(1,0,0,1,0.46023999999999887,0.14985999999998967)"><svg viewBox="0 0 375.07953 114.70028000000003" height="114.70028000000003" width="375.07953"><g><svg></svg></g><g><svg viewBox="0 0 375.07953 114.70028000000003" height="114.70028000000003" width="375.07953"><g transform="matrix(1,0,0,1,-10.22024,-67.81976000000002)"><path d="M10.22 179.38v-111.56h375.08v111.56h-80.14v-3.542h76.597v-104.476h-367.994v104.476h76.597l0 3.542z" fill="#e16a3d" fill-rule="nonzero" stroke="none" stroke-width="1" stroke-linecap="butt" stroke-linejoin="miter" stroke-miterlimit="10" stroke-dasharray="" stroke-dashoffset="0" font-family="none" font-weight="none" font-size="none" text-anchor="none" style="mix-blend-mode: normal" data-fill-palette-color="tertiary"></path><g><path d="M108.249 180.193h-0.323l-2.082-5.834c-0.103-0.301-0.23-0.507-0.38-0.62-0.15-0.115-0.372-0.175-0.664-0.182v0-0.351c0.149 0.006 0.343 0.013 0.581 0.019 0.238 0.006 0.503 0.01 0.795 0.01v0c0.241 0 0.461-0.002 0.66-0.005 0.199-0.003 0.375-0.006 0.528-0.01 0.153-0.003 0.279-0.008 0.376-0.014v0 0.351c-0.318 0.006-0.553 0.035-0.703 0.085-0.15 0.048-0.232 0.129-0.245 0.242-0.013 0.115 0.02 0.283 0.099 0.504v0l1.564 4.419-0.138 0.097 1.282-3.842c0.116-0.357 0.168-0.644 0.155-0.86-0.013-0.215-0.104-0.372-0.274-0.473-0.17-0.102-0.433-0.159-0.79-0.172v0-0.351c0.168 0.006 0.34 0.011 0.516 0.014 0.176 0.003 0.354 0.006 0.533 0.01 0.179 0.003 0.354 0.005 0.524 0.005v0c0.183 0 0.368-0.003 0.557-0.01 0.189-0.006 0.377-0.013 0.565-0.019v0 0.351c-0.221 0.013-0.411 0.061-0.57 0.143-0.16 0.081-0.299 0.203-0.416 0.366-0.116 0.163-0.221 0.381-0.313 0.655v0zM104.623 180.193h-0.332l-2.082-5.834c-0.11-0.301-0.254-0.507-0.434-0.62-0.179-0.115-0.442-0.175-0.788-0.182v0-0.351c0.17 0.006 0.383 0.013 0.64 0.019 0.259 0.006 0.55 0.01 0.875 0.01v0c0.247 0 0.47-0.002 0.669-0.005 0.199-0.003 0.375-0.006 0.528-0.01 0.153-0.003 0.279-0.008 0.376-0.014v0 0.351c-0.305 0.006-0.532 0.035-0.679 0.085-0.147 0.048-0.227 0.129-0.24 0.242-0.013 0.115 0.02 0.283 0.1 0.504v0l1.602 4.535-0.225 0.158 1.553-4.554 0.206 0.496zM115.246 180.125v0-0.351c0.288-0.013 0.483-0.07 0.587-0.172 0.105-0.1 0.158-0.277 0.157-0.531v0-2.327c0-0.43-0.083-0.754-0.25-0.972-0.166-0.218-0.413-0.327-0.739-0.327v0c-0.267 0-0.515 0.073-0.746 0.218-0.231 0.147-0.431 0.364-0.601 0.65v0l0.009-0.4c0.163-0.299 0.393-0.533 0.689-0.703 0.297-0.17 0.632-0.254 1.003-0.254v0c0.507 0 0.898 0.162 1.171 0.484 0.275 0.322 0.412 0.782 0.412 1.382v0 2.249c0 0.254 0.078 0.431 0.235 0.531 0.155 0.102 0.435 0.159 0.838 0.172v0 0.351c-0.097-0.006-0.23-0.011-0.399-0.014-0.17-0.003-0.354-0.008-0.553-0.015-0.199-0.006-0.393-0.01-0.582-0.009v0c-0.241 0-0.477 0.005-0.708 0.014-0.231 0.01-0.406 0.018-0.523 0.024zM111.688 180.125v0-0.351c0.404-0.013 0.684-0.07 0.841-0.172 0.157-0.1 0.235-0.277 0.235-0.531v0-5.279c0-0.305-0.08-0.522-0.24-0.649-0.16-0.128-0.439-0.198-0.836-0.211v0-0.352c0.131 0.006 0.265 0.013 0.402 0.02 0.136 0.006 0.276 0.01 0.42 0.009v0c0.215 0 0.423-0.011 0.625-0.033 0.202-0.023 0.391-0.057 0.567-0.102v0 6.597c0 0.254 0.054 0.431 0.162 0.531 0.107 0.102 0.301 0.159 0.582 0.172v0 0.351c-0.131-0.006-0.309-0.015-0.533-0.024-0.225-0.01-0.454-0.015-0.688-0.014v0c-0.268 0-0.547 0.005-0.837 0.014-0.291 0.01-0.524 0.018-0.7 0.024zM121.228 180.261v0c-0.469 0-0.877-0.106-1.227-0.317-0.349-0.212-0.618-0.516-0.807-0.914-0.189-0.397-0.284-0.866-0.283-1.406v0c0-0.548 0.096-1.02 0.288-1.418 0.192-0.397 0.466-0.705 0.822-0.923 0.355-0.218 0.78-0.327 1.275-0.327v0c0.423 0 0.789 0.082 1.095 0.244 0.305 0.163 0.541 0.418 0.708 0.766 0.166 0.349 0.243 0.804 0.23 1.365v0h-3.793l-0.01-0.352h2.826c0.013-0.32-0.02-0.605-0.099-0.855-0.078-0.25-0.2-0.451-0.366-0.601-0.166-0.15-0.38-0.225-0.64-0.226v0c-0.333 0-0.625 0.143-0.875 0.429-0.25 0.288-0.398 0.734-0.443 1.341v0l0.019 0.019c-0.006 0.071-0.011 0.146-0.015 0.225-0.003 0.078-0.005 0.159-0.004 0.245v0c0 0.696 0.133 1.235 0.399 1.617 0.267 0.381 0.654 0.572 1.164 0.572v0c0.325 0 0.618-0.082 0.88-0.245 0.26-0.163 0.472-0.418 0.635-0.763v0l0.322 0.186c-0.17 0.417-0.439 0.744-0.807 0.982-0.368 0.238-0.8 0.356-1.294 0.356zM124.393 180.125v0-0.351c0.41-0.013 0.692-0.07 0.846-0.172 0.153-0.1 0.23-0.277 0.23-0.531v0-2.768c0-0.305-0.08-0.522-0.24-0.649-0.16-0.126-0.439-0.196-0.836-0.209v0-0.354c0.137 0.006 0.273 0.013 0.407 0.02 0.133 0.006 0.274 0.01 0.424 0.009v0c0.43 0 0.827-0.045 1.193-0.135v0 4.025c0 0.275 0.101 0.467 0.303 0.577 0.202 0.111 0.548 0.174 1.037 0.187v0 0.351c-0.118-0.006-0.276-0.011-0.475-0.014-0.199-0.003-0.414-0.008-0.645-0.015-0.231-0.006-0.457-0.01-0.678-0.009v0c-0.313 0-0.615 0.005-0.904 0.014-0.291 0.01-0.511 0.018-0.662 0.024zM128.264 176.657v0c-0.136 0-0.248-0.041-0.337-0.124-0.087-0.081-0.131-0.183-0.131-0.307v0c0-0.084 0.018-0.161 0.053-0.231 0.036-0.068 0.069-0.133 0.102-0.194 0.032-0.063 0.048-0.124 0.049-0.181v0c0-0.137-0.101-0.206-0.303-0.206v0c-0.155 0-0.321 0.041-0.497 0.123-0.176 0.081-0.338 0.187-0.485 0.318-0.147 0.131-0.256 0.28-0.327 0.448v0l-0.029-0.38c0.183-0.305 0.412-0.543 0.688-0.713 0.278-0.17 0.566-0.254 0.865-0.254v0c0.307 0 0.548 0.085 0.723 0.254 0.176 0.17 0.264 0.397 0.264 0.684v0c0 0.228-0.058 0.412-0.175 0.552-0.118 0.141-0.271 0.211-0.46 0.211zM132.26 180.261v0c-0.469 0-0.877-0.106-1.226-0.317-0.347-0.212-0.616-0.516-0.805-0.914-0.189-0.397-0.284-0.866-0.283-1.406v0c0-0.548 0.096-1.02 0.288-1.418 0.192-0.397 0.465-0.705 0.819-0.923 0.355-0.218 0.781-0.327 1.278-0.327v0c0.423 0 0.788 0.082 1.093 0.244 0.307 0.163 0.544 0.418 0.71 0.766 0.165 0.349 0.241 0.804 0.228 1.365v0h-3.791l-0.01-0.352h2.824c0.013-0.32-0.019-0.605-0.097-0.855-0.079-0.25-0.201-0.451-0.366-0.601-0.166-0.15-0.381-0.225-0.642-0.226v0c-0.331 0-0.622 0.143-0.873 0.429-0.252 0.288-0.401 0.734-0.446 1.341v0l0.02 0.019c-0.006 0.071-0.011 0.146-0.015 0.225-0.003 0.078-0.005 0.159-0.005 0.245v0c0 0.696 0.133 1.235 0.4 1.617 0.268 0.381 0.656 0.572 1.164 0.572v0c0.326 0 0.62-0.082 0.879-0.245 0.26-0.163 0.472-0.418 0.635-0.763v0l0.323 0.186c-0.17 0.417-0.438 0.744-0.805 0.982-0.368 0.238-0.801 0.356-1.297 0.356zM139.025 180.125v0-0.351c0.385-0.013 0.671-0.042 0.86-0.087 0.187-0.047 0.314-0.135 0.381-0.264 0.065-0.131 0.097-0.326 0.097-0.587v0-5.25h-0.548c-0.292 0-0.532 0.054-0.717 0.163-0.186 0.107-0.341 0.296-0.466 0.567-0.123 0.27-0.233 0.65-0.332 1.139v0h-0.371c0.065-0.397 0.112-0.78 0.143-1.149 0.029-0.368 0.044-0.735 0.044-1.1v0c0.267 0.006 0.557 0.013 0.87 0.019 0.312 0.006 0.629 0.01 0.953 0.01 0.322 0 0.629 0 0.923 0v0c0.26 0 0.55 0 0.87 0 0.318 0 0.641-0.003 0.967-0.01 0.325-0.006 0.621-0.013 0.89-0.019v0c0 0.359 0.016 0.726 0.048 1.1 0.032 0.375 0.078 0.758 0.136 1.149v0h-0.371c-0.071-0.372-0.151-0.676-0.24-0.914-0.087-0.239-0.188-0.428-0.303-0.567-0.113-0.141-0.248-0.24-0.404-0.298-0.157-0.06-0.343-0.09-0.558-0.09v0h-0.548v5.25c0 0.26 0.032 0.456 0.095 0.587 0.061 0.129 0.188 0.217 0.38 0.264 0.192 0.045 0.481 0.074 0.866 0.087v0 0.351c-0.202-0.013-0.466-0.021-0.793-0.024-0.325-0.003-0.67-0.005-1.035-0.005v0c-0.391 0-0.748 0.002-1.071 0.005-0.322 0.003-0.577 0.011-0.766 0.024zM147.096 180.261v0c-0.469 0-0.877-0.106-1.226-0.317-0.347-0.212-0.616-0.516-0.805-0.914-0.189-0.397-0.284-0.866-0.284-1.406v0c0-0.548 0.096-1.02 0.289-1.418 0.192-0.397 0.465-0.705 0.819-0.923 0.355-0.218 0.781-0.327 1.277-0.327v0c0.423 0 0.788 0.082 1.093 0.244 0.307 0.163 0.544 0.418 0.71 0.766 0.165 0.349 0.241 0.804 0.228 1.365v0h-3.79l-0.01-0.352h2.824c0.013-0.32-0.019-0.605-0.097-0.855-0.079-0.25-0.201-0.451-0.366-0.601-0.166-0.15-0.381-0.225-0.643-0.226v0c-0.331 0-0.622 0.143-0.872 0.429-0.252 0.288-0.401 0.734-0.446 1.341v0l0.019 0.019c-0.006 0.071-0.011 0.146-0.014 0.225-0.003 0.078-0.005 0.159-0.005 0.245v0c0 0.696 0.133 1.235 0.4 1.617 0.268 0.381 0.656 0.572 1.163 0.572v0c0.326 0 0.62-0.082 0.88-0.245 0.26-0.163 0.472-0.418 0.635-0.763v0l0.322 0.186c-0.17 0.417-0.438 0.744-0.804 0.982-0.368 0.238-0.801 0.356-1.297 0.356zM152.913 180.261v0c-0.47 0-0.877-0.107-1.222-0.322-0.346-0.215-0.613-0.518-0.802-0.909-0.189-0.391-0.284-0.853-0.284-1.386v0c0-0.554 0.098-1.032 0.294-1.433 0.196-0.401 0.474-0.71 0.836-0.928 0.36-0.218 0.785-0.327 1.275-0.327v0c0.359 0 0.678 0.055 0.957 0.164 0.28 0.111 0.501 0.262 0.664 0.451 0.163 0.189 0.245 0.407 0.245 0.655v0c0 0.215-0.065 0.393-0.196 0.533-0.129 0.141-0.298 0.211-0.507 0.211v0c-0.163 0-0.296-0.046-0.397-0.138-0.1-0.09-0.15-0.204-0.151-0.342v0c0-0.124 0.027-0.232 0.083-0.322 0.055-0.092 0.111-0.179 0.167-0.26 0.055-0.081 0.082-0.161 0.082-0.24v0c0-0.103-0.072-0.19-0.215-0.259-0.142-0.068-0.328-0.102-0.558-0.102v0c-0.501 0-0.886 0.191-1.156 0.572-0.271 0.381-0.407 0.93-0.407 1.646v0c0 0.717 0.133 1.267 0.398 1.648 0.263 0.381 0.646 0.572 1.146 0.572v0c0.326 0 0.613-0.085 0.86-0.255 0.247-0.17 0.449-0.421 0.606-0.753v0l0.323 0.186c-0.163 0.423-0.422 0.752-0.776 0.987-0.355 0.234-0.777 0.351-1.265 0.351zM159.275 180.125v0-0.351c0.286-0.013 0.481-0.07 0.584-0.172 0.105-0.1 0.158-0.277 0.158-0.531v0-2.327c0-0.43-0.083-0.754-0.25-0.972-0.166-0.218-0.412-0.327-0.737-0.327v0c-0.268 0-0.518 0.073-0.749 0.218-0.231 0.147-0.431 0.364-0.601 0.65v0l0.01-0.4c0.163-0.299 0.393-0.533 0.691-0.703 0.296-0.17 0.629-0.254 1.001-0.254v0c0.507 0 0.898 0.162 1.173 0.484 0.273 0.322 0.41 0.782 0.409 1.382v0 2.249c0 0.254 0.078 0.431 0.236 0.531 0.157 0.102 0.437 0.159 0.841 0.172v0 0.351c-0.099-0.006-0.233-0.011-0.403-0.014-0.168-0.003-0.351-0.008-0.55-0.015-0.199-0.006-0.393-0.01-0.582-0.009v0c-0.242 0-0.479 0.005-0.71 0.014-0.231 0.01-0.405 0.018-0.521 0.024zM155.717 180.125v0-0.351c0.404-0.013 0.684-0.07 0.841-0.172 0.155-0.1 0.233-0.277 0.233-0.531v0-5.279c0-0.305-0.079-0.522-0.238-0.649-0.16-0.128-0.439-0.198-0.836-0.211v0-0.352c0.129 0.006 0.263 0.013 0.4 0.02 0.137 0.006 0.278 0.01 0.422 0.009v0c0.215 0 0.423-0.011 0.625-0.033 0.202-0.023 0.39-0.057 0.565-0.102v0 6.597c0 0.254 0.054 0.431 0.162 0.531 0.108 0.102 0.302 0.159 0.582 0.172v0 0.351c-0.131-0.006-0.309-0.015-0.533-0.024-0.225-0.01-0.454-0.015-0.689-0.014v0c-0.267 0-0.545 0.005-0.836 0.014-0.289 0.01-0.522 0.018-0.698 0.024zM166.163 180.125v0-0.351c0.288-0.013 0.483-0.07 0.587-0.172 0.105-0.1 0.158-0.277 0.157-0.531v0-2.327c0-0.43-0.083-0.754-0.249-0.972-0.166-0.218-0.416-0.327-0.749-0.327v0c-0.26 0-0.506 0.073-0.737 0.218-0.231 0.147-0.435 0.364-0.611 0.65v0l0.02-0.4c0.157-0.299 0.385-0.533 0.683-0.703 0.301-0.17 0.633-0.254 0.999-0.254v0c0.514 0 0.908 0.162 1.182 0.484 0.273 0.322 0.41 0.782 0.41 1.382v0 2.249c0 0.254 0.078 0.431 0.235 0.531 0.155 0.102 0.435 0.159 0.839 0.172v0 0.351c-0.097-0.006-0.23-0.011-0.4-0.014-0.17-0.003-0.355-0.008-0.558-0.015-0.202-0.006-0.394-0.01-0.576-0.009v0c-0.241 0-0.477 0.005-0.708 0.014-0.231 0.01-0.406 0.018-0.524 0.024zM162.598 180.125v0-0.351c0.41-0.013 0.692-0.069 0.843-0.167 0.153-0.097 0.23-0.276 0.231-0.536v0-2.768c0-0.305-0.08-0.522-0.24-0.649-0.16-0.126-0.438-0.196-0.834-0.209v0-0.354c0.129 0.006 0.263 0.013 0.4 0.02 0.137 0.006 0.277 0.01 0.419 0.009v0c0.221 0 0.433-0.011 0.635-0.033 0.202-0.023 0.391-0.057 0.567-0.102v0 4.086c0 0.26 0.054 0.439 0.163 0.536 0.107 0.099 0.301 0.154 0.581 0.167v0 0.351c-0.15-0.006-0.334-0.015-0.552-0.024-0.218-0.01-0.441-0.015-0.669-0.014v0c-0.268 0-0.542 0.005-0.822 0.014-0.28 0.01-0.52 0.018-0.722 0.024zM172.193 180.261v0c-0.449 0-0.852-0.092-1.207-0.276-0.355-0.186-0.637-0.474-0.845-0.865-0.208-0.391-0.313-0.893-0.313-1.506v0c0-0.619 0.104-1.124 0.313-1.514 0.208-0.391 0.492-0.679 0.85-0.866 0.359-0.186 0.759-0.279 1.202-0.278v0c0.449 0 0.852 0.093 1.207 0.278 0.355 0.186 0.637 0.474 0.846 0.866 0.208 0.391 0.313 0.896 0.313 1.514v0c0 0.612-0.104 1.114-0.313 1.506-0.208 0.391-0.49 0.679-0.846 0.865-0.355 0.184-0.758 0.276-1.207 0.276zM172.193 179.91v0c0.391 0 0.713-0.183 0.968-0.548 0.255-0.364 0.383-0.946 0.382-1.748v0c0-0.808-0.128-1.394-0.382-1.759-0.254-0.365-0.576-0.548-0.968-0.548v0c-0.397 0-0.721 0.183-0.971 0.548-0.25 0.365-0.376 0.952-0.376 1.759v0c0 0.801 0.125 1.384 0.376 1.748 0.25 0.365 0.574 0.548 0.971 0.548zM175.536 180.125v0-0.351c0.397-0.006 0.676-0.061 0.836-0.162 0.16-0.1 0.24-0.28 0.24-0.541v0-5.279c0-0.299-0.078-0.515-0.235-0.649-0.157-0.134-0.437-0.204-0.841-0.211v0-0.361c0.131 0.006 0.265 0.013 0.402 0.019 0.136 0.006 0.272 0.01 0.41 0.01v0c0.228 0 0.443-0.011 0.644-0.034 0.202-0.023 0.388-0.057 0.558-0.102v0 6.607c0 0.267 0.08 0.448 0.24 0.545 0.158 0.099 0.436 0.151 0.834 0.158v0 0.351c-0.097-0.006-0.23-0.011-0.4-0.014-0.17-0.003-0.354-0.008-0.553-0.015-0.199-0.006-0.396-0.01-0.591-0.009v0c-0.292 0-0.587 0.005-0.885 0.014-0.296 0.01-0.515 0.018-0.659 0.024zM181.966 180.261v0c-0.449 0-0.852-0.092-1.207-0.276-0.354-0.186-0.635-0.474-0.844-0.865-0.208-0.391-0.313-0.893-0.312-1.506v0c0-0.619 0.104-1.124 0.312-1.514 0.208-0.391 0.491-0.679 0.849-0.866 0.359-0.186 0.759-0.279 1.202-0.278v0c0.451 0 0.853 0.093 1.207 0.278 0.355 0.186 0.637 0.474 0.846 0.866 0.208 0.391 0.313 0.896 0.312 1.514v0c0 0.612-0.104 1.114-0.312 1.506-0.208 0.391-0.49 0.679-0.846 0.865-0.354 0.184-0.756 0.276-1.207 0.276zM181.966 179.91v0c0.391 0 0.714-0.183 0.969-0.548 0.254-0.364 0.381-0.946 0.381-1.748v0c0-0.808-0.127-1.394-0.381-1.759-0.255-0.365-0.578-0.548-0.969-0.548v0c-0.397 0-0.721 0.183-0.972 0.548-0.25 0.365-0.376 0.952-0.376 1.759v0c0 0.801 0.125 1.384 0.376 1.748 0.25 0.365 0.574 0.548 0.972 0.548zM187.509 182.462v0c-0.645 0-1.156-0.116-1.534-0.347-0.378-0.233-0.567-0.545-0.567-0.935v0c0-0.305 0.112-0.577 0.336-0.815 0.225-0.238 0.558-0.441 1.001-0.61v0l0.255 0.174c-0.215 0.092-0.386 0.239-0.514 0.441-0.126 0.202-0.189 0.427-0.189 0.674v0c0 0.339 0.12 0.604 0.361 0.793 0.241 0.189 0.576 0.284 1.006 0.283v0c0.346 0 0.65-0.059 0.914-0.177 0.265-0.118 0.473-0.28 0.625-0.485 0.153-0.205 0.23-0.435 0.23-0.688v0c0-0.247-0.075-0.431-0.225-0.552-0.149-0.12-0.376-0.179-0.684-0.18v0h-0.996c-0.391 0-0.702-0.075-0.933-0.225-0.231-0.15-0.347-0.352-0.346-0.606v0c0-0.196 0.069-0.378 0.208-0.548 0.141-0.17 0.347-0.329 0.62-0.477v0l0.313 0.038c-0.142 0.09-0.246 0.182-0.313 0.274-0.065 0.09-0.097 0.191-0.096 0.303v0c0 0.123 0.053 0.217 0.157 0.284 0.103 0.065 0.253 0.097 0.448 0.097v0h1.115c0.52 0 0.916 0.107 1.188 0.322 0.27 0.215 0.405 0.524 0.405 0.928v0c0 0.397-0.119 0.749-0.357 1.055-0.238 0.307-0.567 0.547-0.988 0.72-0.42 0.173-0.9 0.259-1.44 0.259zM187.606 178.279v0c-0.587 0-1.049-0.149-1.389-0.446-0.338-0.296-0.507-0.701-0.506-1.217v0c0-0.52 0.169-0.927 0.506-1.222 0.339-0.292 0.802-0.439 1.389-0.438v0c0.587 0 1.048 0.146 1.384 0.438 0.334 0.294 0.502 0.701 0.502 1.222v0c0 0.515-0.167 0.921-0.502 1.217-0.336 0.297-0.797 0.446-1.384 0.446zM187.606 177.937v0c0.313 0 0.545-0.109 0.693-0.327 0.15-0.218 0.225-0.549 0.225-0.994v0c0-0.449-0.075-0.781-0.225-0.996-0.149-0.215-0.38-0.322-0.693-0.323v0c-0.312 0-0.543 0.107-0.693 0.323-0.15 0.215-0.225 0.547-0.226 0.996v0c0 0.444 0.075 0.776 0.226 0.994 0.15 0.218 0.381 0.327 0.693 0.327zM190.381 176.245v0c-0.123 0-0.216-0.042-0.279-0.126-0.061-0.086-0.107-0.183-0.135-0.293-0.029-0.111-0.06-0.208-0.093-0.289-0.034-0.082-0.086-0.124-0.157-0.123v0c-0.039 0-0.096 0.022-0.172 0.065-0.074 0.042-0.153 0.102-0.238 0.179-0.086 0.079-0.158 0.17-0.215 0.274v0l-0.158-0.235c0.131-0.215 0.313-0.392 0.548-0.531 0.234-0.141 0.466-0.211 0.695-0.21v0c0.202 0 0.361 0.061 0.478 0.181 0.118 0.12 0.177 0.287 0.177 0.502v0c0 0.183-0.041 0.33-0.124 0.441-0.081 0.11-0.19 0.165-0.327 0.165zM194.448 180.283h-0.322l-1.828-4.193c-0.092-0.221-0.218-0.383-0.378-0.485-0.158-0.1-0.365-0.15-0.62-0.15v0-0.364c0.234 0.013 0.451 0.023 0.649 0.029 0.199 0.008 0.416 0.012 0.652 0.013v0c0.286 0 0.533-0.004 0.742-0.013 0.208-0.006 0.404-0.016 0.586-0.029v0 0.364c-0.333 0.006-0.54 0.066-0.62 0.179-0.082 0.115-0.061 0.312 0.063 0.592v0l1.26 2.913-0.155 0.058 0.928-2.346c0.123-0.305 0.183-0.559 0.18-0.761-0.003-0.202-0.065-0.357-0.184-0.465-0.121-0.107-0.302-0.163-0.543-0.17v0-0.364c0.163 0.006 0.306 0.011 0.429 0.015 0.124 0.003 0.244 0.006 0.358 0.01 0.113 0.003 0.242 0.005 0.386 0.004v0c0.183 0 0.367-0.003 0.552-0.009 0.186-0.006 0.347-0.013 0.483-0.02v0 0.364c-0.267 0.013-0.491 0.103-0.674 0.271-0.183 0.17-0.346 0.444-0.49 0.822v0zM192.727 182.52v0c-0.313 0-0.565-0.082-0.754-0.245-0.187-0.163-0.281-0.375-0.281-0.635v0c0-0.202 0.06-0.365 0.18-0.489 0.121-0.123 0.28-0.184 0.475-0.185v0c0.149 0 0.266 0.037 0.351 0.112 0.084 0.076 0.126 0.175 0.126 0.298v0c0 0.099-0.016 0.182-0.048 0.25-0.032 0.068-0.063 0.132-0.092 0.191-0.029 0.058-0.044 0.12-0.044 0.184v0c0 0.111 0.068 0.167 0.203 0.168v0c0.15 0 0.286-0.054 0.408-0.163 0.12-0.107 0.222-0.267 0.307-0.482v0l0.626-1.534 0.293 0.194-0.557 1.379c-0.092 0.221-0.193 0.404-0.303 0.547-0.111 0.142-0.238 0.246-0.381 0.313-0.144 0.065-0.313 0.097-0.509 0.097zM204.749 180.193h-0.323l-2.385-6.391h-0.157v5.005c0 0.247 0.031 0.44 0.092 0.577 0.063 0.136 0.181 0.229 0.354 0.281 0.173 0.053 0.425 0.09 0.756 0.109v0 0.351c-0.123-0.013-0.307-0.021-0.552-0.024-0.244-0.003-0.509-0.005-0.795-0.005v0c-0.294 0-0.558 0.002-0.793 0.005-0.234 0.003-0.417 0.011-0.548 0.024v0-0.351c0.307-0.019 0.542-0.056 0.706-0.109 0.162-0.052 0.272-0.145 0.332-0.281 0.058-0.137 0.087-0.326 0.087-0.567v0-4.419c0-0.234-0.026-0.409-0.078-0.523-0.053-0.113-0.159-0.192-0.317-0.238-0.16-0.047-0.403-0.074-0.73-0.08v0-0.351c0.137 0.006 0.325 0.013 0.563 0.019 0.238 0.006 0.503 0.01 0.797 0.01v0c0.221 0 0.43-0.003 0.625-0.01 0.196-0.006 0.351-0.013 0.468-0.019v0l2.172 5.884-0.284 0.039 1.925-5.923c0.215 0.013 0.402 0.021 0.562 0.024 0.16 0.003 0.321 0.005 0.482 0.005v0c0.294 0 0.573-0.003 0.836-0.01 0.263-0.006 0.473-0.013 0.63-0.019v0 0.351c-0.325 0.006-0.567 0.033-0.727 0.08-0.16 0.045-0.267 0.124-0.322 0.238-0.055 0.115-0.082 0.289-0.082 0.523v0 4.535c0 0.228 0.027 0.401 0.082 0.519 0.055 0.116 0.162 0.196 0.322 0.24 0.16 0.042 0.402 0.069 0.727 0.082v0 0.351c-0.17-0.013-0.393-0.021-0.668-0.024-0.276-0.003-0.587-0.005-0.934-0.005v0c-0.333 0-0.631 0.002-0.894 0.005-0.263 0.003-0.47 0.011-0.62 0.024v0-0.351c0.292-0.019 0.511-0.05 0.654-0.092 0.144-0.044 0.237-0.124 0.279-0.24 0.042-0.118 0.063-0.288 0.063-0.509v0l0.009-5.286h-0.155zM212.752 180.261v0c-0.469 0-0.877-0.106-1.227-0.317-0.349-0.212-0.618-0.516-0.807-0.914-0.189-0.397-0.284-0.866-0.283-1.406v0c0-0.548 0.096-1.02 0.288-1.418 0.192-0.397 0.466-0.705 0.822-0.923 0.355-0.218 0.78-0.327 1.275-0.327v0c0.423 0 0.789 0.082 1.095 0.244 0.305 0.163 0.541 0.418 0.708 0.766 0.166 0.349 0.243 0.804 0.23 1.365v0h-3.793l-0.01-0.352h2.826c0.013-0.32-0.02-0.605-0.099-0.855-0.078-0.25-0.2-0.451-0.366-0.601-0.166-0.15-0.38-0.225-0.64-0.226v0c-0.333 0-0.625 0.143-0.875 0.429-0.25 0.288-0.398 0.734-0.443 1.341v0l0.019 0.019c-0.006 0.071-0.011 0.146-0.014 0.225-0.003 0.078-0.005 0.159-0.005 0.245v0c0 0.696 0.133 1.235 0.4 1.617 0.267 0.381 0.654 0.572 1.163 0.572v0c0.326 0 0.62-0.082 0.88-0.245 0.26-0.163 0.472-0.418 0.635-0.763v0l0.322 0.186c-0.17 0.417-0.439 0.744-0.807 0.982-0.367 0.238-0.798 0.356-1.294 0.356zM218.576 180.261v0c-0.469 0-0.877-0.106-1.226-0.317-0.347-0.212-0.616-0.516-0.805-0.914-0.189-0.397-0.284-0.866-0.284-1.406v0c0-0.548 0.096-1.02 0.289-1.418 0.192-0.397 0.465-0.705 0.819-0.923 0.355-0.218 0.781-0.327 1.277-0.327v0c0.423 0 0.788 0.082 1.093 0.244 0.307 0.163 0.543 0.418 0.708 0.766 0.166 0.349 0.243 0.804 0.23 1.365v0h-3.79l-0.01-0.352h2.824c0.013-0.32-0.019-0.605-0.097-0.855-0.079-0.25-0.202-0.451-0.369-0.601-0.165-0.15-0.378-0.225-0.64-0.226v0c-0.331 0-0.623 0.143-0.875 0.429-0.25 0.288-0.398 0.734-0.443 1.341v0l0.019 0.019c-0.006 0.071-0.011 0.146-0.014 0.225-0.003 0.078-0.005 0.159-0.005 0.245v0c0 0.696 0.133 1.235 0.4 1.617 0.268 0.381 0.656 0.572 1.163 0.572v0c0.326 0 0.62-0.082 0.88-0.245 0.26-0.163 0.472-0.418 0.635-0.763v0l0.322 0.186c-0.17 0.417-0.438 0.744-0.804 0.982-0.368 0.238-0.801 0.356-1.297 0.356zM224.158 180.261v0c-0.49 0-0.855-0.141-1.096-0.424-0.241-0.283-0.361-0.711-0.361-1.285v0-3.097h-1.163v-0.354h1.163v-1.495c0.183-0.006 0.352-0.021 0.509-0.044 0.155-0.023 0.298-0.053 0.429-0.092v0 1.631h1.702v0.354h-1.702v3.4c0 0.305 0.061 0.533 0.182 0.684 0.12 0.15 0.306 0.225 0.56 0.225v0c0.242 0 0.441-0.078 0.596-0.235 0.157-0.157 0.275-0.385 0.354-0.683v0l0.284 0.087c-0.105 0.449-0.275 0.783-0.509 1.001-0.234 0.218-0.55 0.327-0.948 0.327zM228.702 180.261v0c-0.288 0-0.524-0.029-0.71-0.087-0.186-0.058-0.34-0.116-0.463-0.175-0.124-0.06-0.232-0.09-0.322-0.089v0c-0.15 0-0.261 0.101-0.332 0.303v0h-0.352c0.013-0.155 0.023-0.326 0.029-0.512 0.006-0.186 0.011-0.398 0.015-0.637 0.003-0.238 0.002-0.506-0.005-0.805v0h0.352c0.084 0.554 0.265 0.966 0.543 1.236 0.276 0.27 0.649 0.405 1.117 0.405v0c0.352 0 0.623-0.074 0.812-0.223 0.189-0.15 0.284-0.363 0.283-0.637v0c0-0.254-0.096-0.461-0.288-0.621-0.192-0.158-0.526-0.306-1.001-0.443v0c-0.587-0.17-1.017-0.385-1.292-0.645-0.273-0.262-0.41-0.587-0.41-0.977v0c0-0.431 0.14-0.772 0.42-1.023 0.281-0.25 0.659-0.376 1.134-0.375v0c0.254 0 0.467 0.029 0.64 0.087 0.173 0.06 0.322 0.119 0.446 0.177 0.123 0.058 0.23 0.087 0.322 0.087v0c0.071 0 0.129-0.023 0.175-0.068 0.047-0.045 0.086-0.124 0.119-0.235v0h0.351c-0.013 0.144-0.023 0.292-0.029 0.446-0.006 0.152-0.01 0.327-0.01 0.526 0 0.199 0 0.439 0 0.72v0h-0.351c-0.066-0.43-0.239-0.769-0.519-1.018-0.28-0.247-0.618-0.371-1.015-0.371v0c-0.281 0-0.502 0.067-0.662 0.201-0.158 0.133-0.238 0.32-0.238 0.563v0c0 0.254 0.106 0.465 0.318 0.635 0.212 0.17 0.571 0.329 1.078 0.477v0c0.567 0.157 0.974 0.357 1.222 0.601 0.247 0.244 0.371 0.565 0.371 0.962v0c0 0.47-0.154 0.84-0.463 1.11-0.31 0.27-0.738 0.405-1.285 0.405zM241.044 180.193h-0.323l-2.079-5.834c-0.105-0.301-0.233-0.507-0.383-0.62-0.149-0.115-0.37-0.175-0.664-0.182v0-0.351c0.15 0.006 0.344 0.013 0.582 0.019 0.238 0.006 0.503 0.01 0.797 0.01v0c0.241 0 0.461-0.002 0.659-0.005 0.199-0.003 0.375-0.006 0.529-0.01 0.152-0.003 0.277-0.008 0.375-0.014v0 0.351c-0.32 0.006-0.555 0.035-0.705 0.085-0.149 0.048-0.229 0.129-0.242 0.242-0.013 0.115 0.019 0.283 0.097 0.504v0l1.563 4.419-0.136 0.097 1.28-3.842c0.116-0.357 0.168-0.644 0.155-0.86-0.013-0.215-0.103-0.372-0.271-0.473-0.17-0.102-0.434-0.159-0.793-0.172v0-0.351c0.17 0.006 0.343 0.011 0.519 0.014 0.175 0.003 0.351 0.006 0.53 0.01 0.179 0.003 0.354 0.005 0.524 0.005v0c0.183 0 0.368-0.003 0.557-0.01 0.189-0.006 0.378-0.013 0.568-0.019v0 0.351c-0.221 0.013-0.412 0.061-0.572 0.143-0.16 0.081-0.298 0.203-0.415 0.366-0.118 0.163-0.222 0.381-0.313 0.655v0zM237.418 180.193h-0.332l-2.08-5.834c-0.111-0.301-0.257-0.507-0.436-0.62-0.179-0.115-0.442-0.175-0.788-0.182v0-0.351c0.17 0.006 0.384 0.013 0.643 0.019 0.257 0.006 0.548 0.01 0.872 0.01v0c0.249 0 0.473-0.002 0.672-0.005 0.199-0.003 0.374-0.006 0.526-0.01 0.153-0.003 0.28-0.008 0.378-0.014v0 0.351c-0.307 0.006-0.534 0.035-0.681 0.085-0.145 0.048-0.225 0.129-0.238 0.242-0.013 0.115 0.019 0.283 0.097 0.504v0l1.602 4.535-0.223 0.158 1.554-4.554 0.203 0.496zM246.391 180.261v0c-0.443 0-0.793-0.114-1.05-0.342-0.259-0.228-0.388-0.537-0.388-0.928v0c0-0.305 0.074-0.553 0.221-0.742 0.147-0.189 0.334-0.339 0.562-0.45 0.228-0.11 0.47-0.203 0.727-0.279 0.259-0.074 0.503-0.142 0.735-0.204 0.231-0.063 0.42-0.138 0.567-0.225 0.145-0.087 0.218-0.203 0.218-0.347v0-0.48c0-0.312-0.091-0.548-0.274-0.707-0.181-0.16-0.451-0.24-0.809-0.24v0c-0.262 0-0.48 0.037-0.655 0.111-0.176 0.076-0.264 0.166-0.264 0.269v0c0 0.066 0.023 0.135 0.068 0.206 0.045 0.071 0.089 0.148 0.131 0.231 0.044 0.081 0.065 0.17 0.065 0.269v0c0 0.123-0.046 0.224-0.138 0.303-0.09 0.078-0.214 0.116-0.371 0.116v0c-0.176 0-0.319-0.057-0.429-0.17-0.111-0.115-0.167-0.267-0.167-0.455v0c0-0.234 0.091-0.446 0.274-0.635 0.183-0.189 0.428-0.338 0.737-0.446 0.31-0.107 0.661-0.16 1.051-0.16v0c0.404 0 0.733 0.062 0.987 0.186 0.254 0.123 0.44 0.314 0.557 0.575 0.116 0.262 0.175 0.601 0.175 1.018v0 2.608c0 0.157 0.027 0.271 0.08 0.344 0.052 0.071 0.133 0.107 0.245 0.106v0c0.11 0 0.221-0.027 0.332-0.082 0.11-0.057 0.217-0.124 0.322-0.201v0l0.165 0.293c-0.163 0.15-0.335 0.264-0.516 0.342-0.183 0.078-0.395 0.116-0.638 0.116v0c-0.625 0-0.935-0.286-0.928-0.858v0c-0.196 0.286-0.425 0.501-0.688 0.645-0.263 0.142-0.565 0.213-0.904 0.213zM246.771 179.687v0c0.236 0 0.458-0.057 0.667-0.172 0.208-0.115 0.39-0.283 0.545-0.505v0-1.788c-0.065 0.105-0.177 0.195-0.337 0.269-0.16 0.076-0.336 0.148-0.528 0.216-0.191 0.068-0.377 0.148-0.56 0.239-0.183 0.09-0.333 0.209-0.451 0.357-0.116 0.147-0.175 0.334-0.175 0.562v0c0 0.26 0.074 0.462 0.223 0.606 0.15 0.144 0.355 0.216 0.616 0.216zM254.081 180.125v0-0.351c0.288-0.013 0.483-0.07 0.587-0.172 0.105-0.1 0.158-0.277 0.157-0.531v0-2.327c0-0.43-0.083-0.754-0.25-0.972-0.166-0.218-0.415-0.327-0.746-0.327v0c-0.262 0-0.508 0.073-0.739 0.218-0.231 0.147-0.435 0.364-0.611 0.65v0l0.019-0.4c0.157-0.299 0.385-0.533 0.686-0.703 0.299-0.17 0.631-0.254 0.996-0.254v0c0.514 0 0.908 0.162 1.183 0.484 0.273 0.322 0.41 0.782 0.41 1.382v0 2.249c0 0.254 0.078 0.431 0.235 0.531 0.157 0.102 0.437 0.159 0.841 0.172v0 0.351c-0.099-0.006-0.233-0.011-0.402-0.014-0.17-0.003-0.355-0.008-0.558-0.015-0.202-0.006-0.393-0.01-0.574-0.009v0c-0.242 0-0.479 0.005-0.71 0.014-0.231 0.01-0.406 0.018-0.524 0.024zM250.516 180.125v0-0.351c0.41-0.013 0.692-0.069 0.846-0.167 0.152-0.097 0.228-0.276 0.227-0.536v0-2.768c0-0.305-0.08-0.522-0.24-0.649-0.158-0.126-0.436-0.196-0.833-0.209v0-0.354c0.129 0.006 0.263 0.013 0.4 0.02 0.137 0.006 0.277 0.01 0.419 0.009v0c0.223 0 0.435-0.011 0.637-0.033 0.202-0.023 0.39-0.057 0.565-0.102v0 4.086c0 0.26 0.054 0.439 0.162 0.536 0.107 0.099 0.301 0.154 0.582 0.167v0 0.351c-0.15-0.006-0.334-0.015-0.552-0.024-0.218-0.01-0.441-0.015-0.669-0.014v0c-0.268 0-0.542 0.005-0.822 0.014-0.28 0.01-0.52 0.018-0.722 0.024zM261.342 180.232v0-6.44c0-0.305-0.079-0.524-0.237-0.654-0.16-0.131-0.439-0.2-0.836-0.206v0-0.361c0.131 0.006 0.264 0.013 0.4 0.019 0.137 0.006 0.278 0.01 0.421 0.01v0c0.221 0 0.433-0.011 0.635-0.034 0.202-0.023 0.391-0.057 0.568-0.102v0 6.45c0 0.299 0.078 0.514 0.232 0.644 0.157 0.131 0.434 0.203 0.832 0.216v0 0.351c-0.124-0.006-0.254-0.013-0.391-0.019-0.137-0.006-0.278-0.01-0.421-0.01v0c-0.215 0-0.425 0.011-0.631 0.034-0.205 0.023-0.396 0.057-0.572 0.102zM259.808 180.261v0c-0.423 0-0.789-0.104-1.098-0.313-0.31-0.208-0.549-0.508-0.715-0.899-0.165-0.389-0.247-0.855-0.247-1.396v0c0-0.554 0.092-1.033 0.276-1.437 0.186-0.404 0.45-0.715 0.793-0.933 0.343-0.218 0.745-0.327 1.207-0.327v0c0.378 0 0.694 0.082 0.948 0.244 0.254 0.163 0.417 0.362 0.489 0.597v0l-0.068 0.303c-0.079-0.208-0.221-0.381-0.426-0.519-0.205-0.137-0.451-0.206-0.737-0.206v0c-0.47 0-0.832 0.194-1.086 0.582-0.254 0.388-0.381 0.937-0.38 1.648v0c0 0.69 0.12 1.226 0.361 1.607 0.241 0.381 0.583 0.572 1.027 0.572v0c0.305 0 0.569-0.103 0.791-0.308 0.221-0.205 0.381-0.49 0.479-0.856v0l0.049 0.323c-0.092 0.423-0.281 0.749-0.567 0.976-0.286 0.228-0.651 0.342-1.096 0.342zM266.65 180.261v0c-0.469 0-0.877-0.106-1.226-0.317-0.349-0.212-0.618-0.516-0.807-0.914-0.189-0.397-0.284-0.866-0.284-1.406v0c0-0.548 0.096-1.02 0.289-1.418 0.192-0.397 0.466-0.705 0.821-0.923 0.355-0.218 0.78-0.327 1.275-0.327v0c0.423 0 0.789 0.082 1.096 0.244 0.305 0.163 0.541 0.418 0.707 0.766 0.166 0.349 0.243 0.804 0.231 1.365v0h-3.793l-0.01-0.352h2.826c0.013-0.32-0.02-0.605-0.099-0.855-0.078-0.25-0.2-0.451-0.366-0.601-0.166-0.15-0.38-0.225-0.64-0.226v0c-0.333 0-0.625 0.143-0.875 0.429-0.25 0.288-0.398 0.734-0.444 1.341v0l0.02 0.019c-0.006 0.071-0.011 0.146-0.015 0.225-0.003 0.078-0.005 0.159-0.005 0.245v0c0 0.696 0.133 1.235 0.4 1.617 0.267 0.381 0.654 0.572 1.164 0.572v0c0.325 0 0.618-0.082 0.879-0.245 0.26-0.163 0.472-0.418 0.635-0.763v0l0.323 0.186c-0.17 0.417-0.439 0.744-0.807 0.982-0.368 0.238-0.8 0.356-1.295 0.356zM269.816 180.125v0-0.351c0.41-0.013 0.692-0.07 0.846-0.172 0.153-0.1 0.23-0.277 0.23-0.531v0-2.768c0-0.305-0.08-0.522-0.24-0.649-0.16-0.126-0.439-0.196-0.836-0.209v0-0.354c0.137 0.006 0.273 0.013 0.407 0.02 0.133 0.006 0.274 0.01 0.424 0.009v0c0.43 0 0.827-0.045 1.193-0.135v0 4.025c0 0.275 0.101 0.467 0.302 0.577 0.202 0.111 0.548 0.174 1.038 0.187v0 0.351c-0.118-0.006-0.276-0.011-0.475-0.014-0.199-0.003-0.414-0.008-0.645-0.015-0.231-0.006-0.457-0.01-0.679-0.009v0c-0.313 0-0.615 0.005-0.904 0.014-0.291 0.01-0.511 0.018-0.661 0.024zM273.686 176.657v0c-0.136 0-0.248-0.041-0.336-0.124-0.087-0.081-0.131-0.183-0.131-0.307v0c0-0.084 0.018-0.161 0.053-0.231 0.036-0.068 0.069-0.133 0.102-0.194 0.032-0.063 0.048-0.124 0.048-0.181v0c0-0.137-0.101-0.206-0.303-0.206v0c-0.155 0-0.321 0.041-0.497 0.123-0.176 0.081-0.338 0.187-0.484 0.318-0.147 0.131-0.256 0.28-0.328 0.448v0l-0.029-0.38c0.183-0.305 0.412-0.543 0.689-0.713 0.278-0.17 0.566-0.254 0.865-0.254v0c0.307 0 0.548 0.085 0.722 0.254 0.176 0.17 0.264 0.397 0.264 0.684v0c0 0.228-0.058 0.412-0.174 0.552-0.118 0.141-0.271 0.211-0.461 0.211zM274.956 180.125v0-0.351c0.397-0.006 0.676-0.061 0.837-0.162 0.16-0.1 0.24-0.28 0.24-0.541v0-5.279c0-0.299-0.078-0.515-0.236-0.649-0.157-0.134-0.437-0.204-0.841-0.211v0-0.361c0.131 0.006 0.265 0.013 0.403 0.019 0.136 0.006 0.272 0.01 0.409 0.01v0c0.228 0 0.443-0.011 0.645-0.034 0.202-0.023 0.388-0.057 0.558-0.102v0 6.607c0 0.267 0.08 0.448 0.239 0.545 0.16 0.099 0.439 0.151 0.837 0.158v0 0.351c-0.099-0.006-0.233-0.011-0.403-0.014-0.17-0.003-0.354-0.008-0.552-0.015-0.199-0.006-0.396-0.01-0.592-0.009v0c-0.292 0-0.587 0.005-0.882 0.014-0.297 0.01-0.518 0.018-0.662 0.024zM281.115 180.261v0c-0.496 0-0.879-0.161-1.149-0.482-0.27-0.323-0.405-0.784-0.405-1.384v0-2.092c0-0.305-0.08-0.522-0.239-0.649-0.16-0.126-0.435-0.196-0.827-0.209v0-0.354c0.105 0.006 0.227 0.013 0.366 0.02 0.141 0.006 0.283 0.01 0.427 0.009v0c0.215 0 0.422-0.011 0.62-0.033 0.199-0.023 0.399-0.057 0.601-0.102v0 3.529c0 0.417 0.079 0.731 0.238 0.942 0.16 0.212 0.4 0.318 0.719 0.318v0c0.254 0 0.49-0.074 0.708-0.221 0.218-0.147 0.409-0.364 0.572-0.649v0l-0.009 0.4c-0.15 0.301-0.368 0.536-0.655 0.705-0.288 0.168-0.61 0.252-0.967 0.252zM282.698 180.232v0-3.929c0-0.305-0.069-0.522-0.206-0.649-0.136-0.126-0.373-0.196-0.713-0.209v0-0.354c0.103 0.006 0.219 0.013 0.347 0.02 0.128 0.006 0.253 0.01 0.375 0.009v0c0.208 0 0.406-0.011 0.592-0.033 0.186-0.023 0.367-0.057 0.543-0.102v0 3.929c0 0.307 0.082 0.524 0.245 0.649 0.163 0.128 0.44 0.198 0.831 0.211v0 0.351c-0.111-0.013-0.238-0.021-0.378-0.024-0.139-0.003-0.277-0.005-0.415-0.005v0c-0.215 0-0.423 0.011-0.625 0.034-0.202 0.023-0.401 0.057-0.596 0.102zM287.819 180.261v0c-0.288 0-0.524-0.029-0.71-0.087-0.184-0.058-0.339-0.116-0.463-0.175-0.124-0.06-0.232-0.09-0.322-0.089v0c-0.15 0-0.261 0.101-0.332 0.303v0h-0.352c0.013-0.155 0.023-0.326 0.029-0.512 0.006-0.186 0.011-0.398 0.015-0.637 0.003-0.238 0.002-0.506-0.005-0.805v0h0.351c0.084 0.554 0.265 0.966 0.543 1.236 0.276 0.27 0.649 0.405 1.118 0.405v0c0.352 0 0.623-0.074 0.812-0.223 0.189-0.15 0.284-0.363 0.283-0.637v0c0-0.254-0.096-0.461-0.288-0.621-0.192-0.158-0.526-0.306-1.001-0.443v0c-0.587-0.17-1.016-0.385-1.29-0.645-0.275-0.262-0.412-0.587-0.412-0.977v0c0-0.431 0.141-0.772 0.422-1.023 0.28-0.25 0.657-0.376 1.132-0.375v0c0.255 0 0.469 0.029 0.64 0.087 0.173 0.06 0.322 0.119 0.446 0.177 0.123 0.058 0.23 0.087 0.322 0.087v0c0.071 0 0.13-0.023 0.177-0.068 0.045-0.045 0.084-0.124 0.116-0.235v0h0.352c-0.013 0.144-0.023 0.292-0.029 0.446-0.006 0.152-0.01 0.327-0.01 0.526 0 0.199 0 0.439 0 0.72v0h-0.351c-0.066-0.43-0.239-0.769-0.519-1.018-0.28-0.247-0.618-0.371-1.016-0.371v0c-0.281 0-0.501 0.067-0.659 0.201-0.16 0.133-0.24 0.32-0.24 0.563v0c0 0.254 0.106 0.465 0.318 0.635 0.212 0.17 0.571 0.329 1.078 0.477v0c0.567 0.157 0.974 0.357 1.222 0.601 0.249 0.244 0.373 0.565 0.373 0.962v0c0 0.47-0.155 0.84-0.465 1.11-0.309 0.27-0.737 0.405-1.285 0.405zM293.076 180.261v0c-0.488 0-0.852-0.141-1.093-0.424-0.242-0.283-0.364-0.711-0.364-1.285v0-3.097h-1.161v-0.354h1.161v-1.495c0.183-0.006 0.352-0.021 0.509-0.044 0.157-0.023 0.3-0.053 0.429-0.092v0 1.631h1.702v0.354h-1.702v3.4c0 0.305 0.061 0.533 0.182 0.684 0.121 0.15 0.309 0.225 0.563 0.225v0c0.241 0 0.44-0.078 0.596-0.235 0.157-0.157 0.274-0.385 0.351-0.683v0l0.284 0.087c-0.105 0.449-0.275 0.783-0.509 1.001-0.234 0.218-0.55 0.327-0.948 0.327z" fill="#e16a3d" fill-rule="nonzero" stroke="none" stroke-width="1" stroke-linecap="butt" stroke-linejoin="miter" stroke-miterlimit="10" stroke-dasharray="" stroke-dashoffset="0" font-family="none" font-weight="none" font-size="none" text-anchor="none" style="mix-blend-mode: normal" data-fill-palette-color="secondary" id="text-1"></path></g></g><g transform="matrix(1,0,0,1,29.33176499999999,37.710131313789375)"><svg viewBox="0 0 316.416 39.28001737242128" height="39.28001737242128" width="316.416"><g><svg viewBox="0 0 316.416 39.28001737242128" height="39.28001737242128" width="316.416"><g><svg viewBox="0 0 316.416 39.28001737242128" height="39.28001737242128" width="316.416"><g><svg viewBox="0 0 316.416 39.28001737242128" height="39.28001737242128" width="316.416"><g id="textblocktransform"><svg viewBox="0 0 316.416 39.28001737242128" height="39.28001737242128" width="316.416" id="textblock"><g><svg viewBox="0 0 316.416 39.28001737242128" height="39.28001737242128" width="316.416"><g transform="matrix(1,0,0,1,0,0)"><svg width="316.416" viewBox="2.38 -31.61 334.2 41.49" height="39.28001737242128" data-palette-color="#e16a3d"><path d="M20.85 0L20.85 0 20.85-1.45Q22.62-1.53 23.49-1.79 24.35-2.06 24.66-2.78 24.96-3.51 24.96-4.92L24.96-4.92 24.96-23.63Q24.96-25.08 24.68-25.77 24.4-26.45 23.53-26.75 22.66-27.06 20.85-27.1L20.85-27.1 20.85-28.55Q21.77-28.51 23.39-28.47 25-28.43 26.98-28.43L26.98-28.43Q29.23-28.43 30.95-28.47 32.66-28.51 33.67-28.55L33.67-28.55 33.67-27.1Q31.61-27.02 30.63-26.73 29.64-26.45 29.33-25.77 29.03-25.08 29.03-23.63L29.03-23.63 29.03-4.92Q29.03-3.51 29.33-2.8 29.64-2.1 30.63-1.83 31.61-1.57 33.67-1.45L33.67-1.45 33.67 0Q32.66-0.08 30.95-0.1 29.23-0.12 26.98-0.12L26.98-0.12Q25-0.12 23.41-0.1 21.81-0.08 20.85 0ZM2.38 0L2.38 0 2.38-1.45Q4.44-1.57 5.4-1.83 6.37-2.1 6.69-2.8 7.02-3.51 7.02-4.92L7.02-4.92 7.02-23.63Q7.02-25.08 6.69-25.77 6.37-26.45 5.4-26.75 4.44-27.06 2.38-27.1L2.38-27.1 2.38-28.55Q3.39-28.51 5.1-28.47 6.81-28.43 9.07-28.43L9.07-28.43Q11.05-28.43 12.66-28.47 14.27-28.51 15.2-28.55L15.2-28.55 15.2-27.1Q13.43-27.02 12.54-26.73 11.65-26.45 11.37-25.77 11.09-25.08 11.09-23.63L11.09-23.63 11.09-4.92Q11.09-3.51 11.37-2.8 11.65-2.1 12.54-1.83 13.43-1.57 15.2-1.45L15.2-1.45 15.2 0Q14.23-0.08 12.64-0.1 11.05-0.12 9.07-0.12L9.07-0.12Q6.81-0.12 5.1-0.1 3.39-0.08 2.38 0ZM26.49-13.63L9.56-13.63 9.56-15.08 26.49-15.08 26.49-13.63ZM48.67 0.56L48.67 0.56Q45.88 0.56 43.69-0.58 41.49-1.73 40.2-4.15 38.91-6.57 38.91-10.36L38.91-10.36Q38.91-14.19 40.2-16.61 41.49-19.03 43.71-20.18 45.92-21.33 48.67-21.33L48.67-21.33Q51.45-21.33 53.65-20.18 55.84-19.03 57.13-16.61 58.42-14.19 58.42-10.36L58.42-10.36Q58.42-6.57 57.13-4.15 55.84-1.73 53.65-0.58 51.45 0.56 48.67 0.56ZM48.67-0.89L48.67-0.89Q51.09-0.89 52.66-3.15 54.23-5.4 54.23-10.36L54.23-10.36Q54.23-15.36 52.66-17.62 51.09-19.88 48.67-19.88L48.67-19.88Q46.21-19.88 44.65-17.62 43.1-15.36 43.1-10.36L43.1-10.36Q43.1-5.4 44.65-3.15 46.21-0.89 48.67-0.89ZM62.45 0L62.45 0 62.45-1.45Q64.91-1.49 65.9-2.12 66.89-2.74 66.89-4.35L66.89-4.35 66.89-26.13Q66.89-27.98 65.92-28.81 64.95-29.64 62.45-29.68L62.45-29.68 62.45-31.17Q63.26-31.13 64.11-31.09 64.95-31.05 65.8-31.05L65.8-31.05Q67.21-31.05 68.46-31.19 69.71-31.33 70.76-31.61L70.76-31.61 70.76-4.35Q70.76-2.7 71.75-2.1 72.74-1.49 75.2-1.45L75.2-1.45 75.2 0Q74.59-0.04 73.54-0.06 72.5-0.08 71.27-0.12 70.04-0.16 68.83-0.16L68.83-0.16Q67.01-0.16 65.18-0.1 63.34-0.04 62.45 0ZM77.82 0L77.82 0 77.82-1.45Q80.32-1.49 81.28-2.12 82.25-2.74 82.25-4.35L82.25-4.35 82.25-15.77Q82.25-17.62 81.28-18.43 80.32-19.23 77.82-19.31L77.82-19.31 77.82-20.77Q78.62-20.73 79.47-20.69 80.32-20.65 81.2-20.65L81.2-20.65Q82.61-20.65 83.86-20.79 85.11-20.93 86.16-21.21L86.16-21.21 86.16-4.35Q86.16-2.7 87.15-2.1 88.14-1.49 90.6-1.45L90.6-1.45 90.6 0Q89.99-0.04 88.94-0.06 87.9-0.08 86.67-0.12 85.44-0.16 84.23-0.16L84.23-0.16Q82.41-0.16 80.58-0.1 78.74-0.04 77.82 0ZM84.11-25.56L84.11-25.56Q83.02-25.56 82.21-26.33 81.4-27.1 81.4-28.27L81.4-28.27Q81.4-29.4 82.19-30.16 82.98-30.93 84.11-30.93L84.11-30.93Q85.19-30.93 86-30.16 86.81-29.4 86.81-28.27L86.81-28.27Q86.81-27.14 86-26.35 85.19-25.56 84.11-25.56ZM109.34 0.44L109.34 0.44 109.34-26.13Q109.34-28.02 108.36-28.83 107.37-29.64 104.91-29.68L104.91-29.68 104.91-31.17Q105.72-31.13 106.56-31.09 107.41-31.05 108.3-31.05L108.3-31.05Q109.67-31.05 110.92-31.19 112.17-31.33 113.26-31.61L113.26-31.61 113.26-5Q113.26-3.15 114.22-2.34 115.19-1.53 117.65-1.45L117.65-1.45 117.65 0Q116.89-0.04 116.04-0.08 115.19-0.12 114.3-0.12L114.3-0.12Q112.97-0.12 111.7 0.02 110.43 0.16 109.34 0.44ZM103.01 0.56L103.01 0.56Q100.39 0.56 98.48-0.73 96.56-2.02 95.53-4.44 94.51-6.85 94.51-10.2L94.51-10.2Q94.51-13.63 95.66-16.13 96.8-18.63 98.92-19.98 101.04-21.33 103.9-21.33L103.9-21.33Q106.24-21.33 107.81-20.32 109.39-19.31 109.83-17.86L109.83-17.86 109.55-16.61Q109.06-17.9 107.79-18.75 106.52-19.6 104.75-19.6L104.75-19.6Q101.84-19.6 100.27-17.2 98.7-14.8 98.7-10.4L98.7-10.4Q98.7-6.13 100.19-3.77 101.68-1.41 104.43-1.41L104.43-1.41Q106.32-1.41 107.69-2.68 109.06-3.95 109.67-6.21L109.67-6.21 109.87-4.88Q109.3-2.26 107.53-0.85 105.76 0.56 103.01 0.56ZM127.85 0.56L127.85 0.56Q125.11 0.56 123.52-0.85 121.92-2.26 121.92-4.68L121.92-4.68Q121.92-6.57 122.83-7.74 123.74-8.91 125.15-9.6 126.56-10.28 128.15-10.75 129.75-11.21 131.18-11.59 132.61-11.98 133.52-12.52 134.42-13.06 134.42-13.95L134.42-13.95 134.42-15.93Q134.42-17.86 133.29-18.85 132.16-19.84 129.95-19.84L129.95-19.84Q128.33-19.84 127.25-19.38 126.16-18.91 126.16-18.27L126.16-18.27Q126.16-17.86 126.44-17.42 126.72-16.98 126.98-16.47 127.25-15.97 127.25-15.36L127.25-15.36Q127.25-14.6 126.68-14.11 126.12-13.63 125.15-13.63L125.15-13.63Q124.06-13.63 123.37-14.33 122.69-15.04 122.69-16.21L122.69-16.21Q122.69-17.66 123.82-18.83 124.95-20 126.86-20.67 128.78-21.33 131.2-21.33L131.2-21.33Q133.7-21.33 135.27-20.56 136.84-19.8 137.57-18.19 138.29-16.57 138.29-13.99L138.29-13.99 138.29-3.23Q138.29-2.26 138.62-1.81 138.94-1.37 139.62-1.37L139.62-1.37Q140.31-1.37 141-1.71 141.68-2.06 142.33-2.54L142.33-2.54 143.01-1.33Q142-0.4 140.87 0.08 139.75 0.56 138.25 0.56L138.25 0.56Q134.38 0.56 134.42-2.98L134.42-2.98Q133.21-1.21 131.58-0.32 129.95 0.56 127.85 0.56ZM129.42-1.81L129.42-1.81Q130.87-1.81 132.16-2.52 133.46-3.23 134.42-4.6L134.42-4.6 134.42-11.98Q134.02-11.33 133.03-10.87 132.04-10.4 130.85-9.98 129.66-9.56 128.54-8.99 127.41-8.43 126.68-7.52 125.96-6.61 125.96-5.2L125.96-5.2Q125.96-3.59 126.88-2.7 127.81-1.81 129.42-1.81ZM157 0.65L155.67 0.65 148.13-16.65Q147.57-18.02 146.58-18.65 145.59-19.27 144.02-19.27L144.02-19.27 144.02-20.77Q145.47-20.69 146.7-20.65 147.93-20.6 149.38-20.6L149.38-20.6Q151.15-20.6 152.44-20.65 153.74-20.69 154.86-20.77L154.86-20.77 154.86-19.27Q152.81-19.23 152.3-18.53 151.8-17.82 152.57-16.09L152.57-16.09 157.77-4.07 157.12-3.83 160.95-13.51Q161.72-15.4 161.7-16.65 161.68-17.9 160.93-18.57 160.19-19.23 158.69-19.27L158.69-19.27 158.69-20.77Q159.7-20.73 160.47-20.71 161.24-20.69 161.94-20.67 162.65-20.65 163.53-20.65L163.53-20.65Q164.66-20.65 165.81-20.69 166.96-20.73 167.81-20.77L167.81-20.77 167.81-19.27Q166.15-19.19 165.03-18.15 163.9-17.1 163.01-14.76L163.01-14.76 157 0.65ZM149.9 9.88L149.9 9.88Q147.97 9.88 146.8 8.87 145.63 7.86 145.63 6.25L145.63 6.25Q145.63 5 146.38 4.23 147.12 3.47 148.33 3.47L148.33 3.47Q149.26 3.47 149.78 3.93 150.31 4.4 150.31 5.16L150.31 5.16Q150.31 5.77 150.11 6.19 149.9 6.61 149.72 6.98 149.54 7.34 149.54 7.74L149.54 7.74Q149.54 8.43 150.39 8.43L150.39 8.43Q151.32 8.43 152.06 7.76 152.81 7.1 153.33 5.77L153.33 5.77 155.91-0.56 157.12 0.24 154.82 5.93Q154.26 7.3 153.57 8.19 152.89 9.07 152 9.48 151.11 9.88 149.9 9.88ZM200.02 0L200.02 0 200.02-1.45Q201.79-1.53 202.66-1.79 203.53-2.06 203.83-2.78 204.13-3.51 204.13-4.92L204.13-4.92 204.13-23.63Q204.13-25.08 203.85-25.77 203.57-26.45 202.7-26.75 201.83-27.06 200.02-27.1L200.02-27.1 200.02-28.55Q200.95-28.51 202.56-28.47 204.17-28.43 206.15-28.43L206.15-28.43Q208.41-28.43 210.12-28.47 211.83-28.51 212.84-28.55L212.84-28.55 212.84-27.1Q210.79-27.02 209.8-26.73 208.81-26.45 208.51-25.77 208.21-25.08 208.21-23.63L208.21-23.63 208.21-4.92Q208.21-3.51 208.51-2.8 208.81-2.1 209.8-1.83 210.79-1.57 212.84-1.45L212.84-1.45 212.84 0Q211.83-0.08 210.12-0.1 208.41-0.12 206.15-0.12L206.15-0.12Q204.17-0.12 202.58-0.1 200.99-0.08 200.02 0ZM181.55 0L181.55 0 181.55-1.45Q183.61-1.57 184.58-1.83 185.54-2.1 185.87-2.8 186.19-3.51 186.19-4.92L186.19-4.92 186.19-23.63Q186.19-25.08 185.87-25.77 185.54-26.45 184.58-26.75 183.61-27.06 181.55-27.1L181.55-27.1 181.55-28.55Q182.56-28.51 184.27-28.47 185.99-28.43 188.25-28.43L188.25-28.43Q190.22-28.43 191.83-28.47 193.45-28.51 194.38-28.55L194.38-28.55 194.38-27.1Q192.6-27.02 191.71-26.73 190.83-26.45 190.54-25.77 190.26-25.08 190.26-23.63L190.26-23.63 190.26-4.92Q190.26-3.51 190.54-2.8 190.83-2.1 191.71-1.83 192.6-1.57 194.38-1.45L194.38-1.45 194.38 0Q193.41-0.08 191.81-0.1 190.22-0.12 188.25-0.12L188.25-0.12Q185.99-0.12 184.27-0.1 182.56-0.08 181.55 0ZM205.67-13.63L188.73-13.63 188.73-15.08 205.67-15.08 205.67-13.63ZM224.25 0.56L224.25 0.56Q221.51 0.56 219.92-0.85 218.32-2.26 218.32-4.68L218.32-4.68Q218.32-6.57 219.23-7.74 220.14-8.91 221.55-9.6 222.96-10.28 224.55-10.75 226.15-11.21 227.58-11.59 229.01-11.98 229.92-12.52 230.82-13.06 230.82-13.95L230.82-13.95 230.82-15.93Q230.82-17.86 229.7-18.85 228.57-19.84 226.35-19.84L226.35-19.84Q224.74-19.84 223.65-19.38 222.56-18.91 222.56-18.27L222.56-18.27Q222.56-17.86 222.84-17.42 223.12-16.98 223.38-16.47 223.65-15.97 223.65-15.36L223.65-15.36Q223.65-14.6 223.08-14.11 222.52-13.63 221.55-13.63L221.55-13.63Q220.46-13.63 219.78-14.33 219.09-15.04 219.09-16.21L219.09-16.21Q219.09-17.66 220.22-18.83 221.35-20 223.26-20.67 225.18-21.33 227.6-21.33L227.6-21.33Q230.1-21.33 231.67-20.56 233.24-19.8 233.97-18.19 234.7-16.57 234.7-13.99L234.7-13.99 234.7-3.23Q234.7-2.26 235.02-1.81 235.34-1.37 236.03-1.37L236.03-1.37Q236.71-1.37 237.4-1.71 238.08-2.06 238.73-2.54L238.73-2.54 239.41-1.33Q238.4-0.4 237.28 0.08 236.15 0.56 234.65 0.56L234.65 0.56Q230.78 0.56 230.82-2.98L230.82-2.98Q229.61-1.21 227.98-0.32 226.35 0.56 224.25 0.56ZM225.82-1.81L225.82-1.81Q227.28-1.81 228.57-2.52 229.86-3.23 230.82-4.6L230.82-4.6 230.82-11.98Q230.42-11.33 229.43-10.87 228.45-10.4 227.26-9.98 226.07-9.56 224.94-8.99 223.81-8.43 223.08-7.52 222.36-6.61 222.36-5.2L222.36-5.2Q222.36-3.59 223.28-2.7 224.21-1.81 225.82-1.81ZM253.4 0.4L251.99 0.4 244.53-16.69Q243.93-18.02 242.96-18.65 241.99-19.27 240.42-19.27L240.42-19.27 240.42-20.77Q241.67-20.69 242.84-20.65 244.01-20.6 245.66-20.6L245.66-20.6Q247.27-20.6 248.62-20.65 249.98-20.69 251.27-20.77L251.27-20.77 251.27-19.27Q249.21-19.23 248.7-18.53 248.2-17.82 248.97-16.09L248.97-16.09 254.17-4.15 253.56-3.95 257.39-13.47Q258.16-15.36 258.16-16.61 258.16-17.86 257.41-18.53 256.67-19.19 255.14-19.27L255.14-19.27 255.14-20.77Q256.27-20.73 257.03-20.71 257.8-20.69 258.5-20.67 259.21-20.65 260.02-20.65L260.02-20.65Q261.31-20.65 262.37-20.69 263.44-20.73 264.25-20.77L264.25-20.77 264.25-19.27Q262.64-19.19 261.51-18.15 260.38-17.1 259.45-14.8L259.45-14.8 253.4 0.4ZM277.59 0.56L277.59 0.56Q274.69 0.56 272.53-0.75 270.38-2.06 269.21-4.52 268.04-6.98 268.04-10.32L268.04-10.32Q268.04-13.71 269.23-16.17 270.42-18.63 272.61-19.98 274.81-21.33 277.88-21.33L277.88-21.33Q280.5-21.33 282.39-20.32 284.29-19.31 285.32-17.16 286.34-15 286.26-11.53L286.26-11.53 270.62-11.53 270.58-12.98 282.23-12.98Q282.31-14.96 281.83-16.51 281.34-18.06 280.32-18.99 279.29-19.92 277.67-19.92L277.67-19.92Q275.62-19.92 274.07-18.15 272.51-16.37 272.23-12.62L272.23-12.62 272.31-12.54Q272.27-12.1 272.25-11.61 272.23-11.13 272.23-10.6L272.23-10.6Q272.23-6.29 273.88-3.93 275.54-1.57 278.68-1.57L278.68-1.57Q280.7-1.57 282.31-2.58 283.92-3.59 284.93-5.73L284.93-5.73 286.26-4.96Q285.21-2.38 282.94-0.91 280.66 0.56 277.59 0.56ZM305.37 0L305.37 0 305.37-1.45Q307.15-1.53 307.79-2.16 308.44-2.78 308.44-4.35L308.44-4.35 308.44-13.95Q308.44-16.61 307.41-17.96 306.38-19.31 304.32-19.31L304.32-19.31Q302.71-19.31 301.28-18.41 299.85-17.5 298.76-15.73L298.76-15.73 298.84-17.38Q299.81-19.23 301.66-20.28 303.52-21.33 305.78-21.33L305.78-21.33Q308.96-21.33 310.66-19.33 312.35-17.34 312.35-13.63L312.35-13.63 312.35-4.35Q312.35-2.78 313.32-2.16 314.28-1.53 316.78-1.45L316.78-1.45 316.78 0Q316.18-0.04 315.13-0.06 314.08-0.08 312.83-0.12 311.58-0.16 310.45-0.16L310.45-0.16Q308.96-0.16 307.53-0.1 306.1-0.04 305.37 0ZM290.66 0L290.66 0 290.66-1.45Q293.2-1.53 294.14-2.14 295.09-2.74 295.09-4.35L295.09-4.35 295.09-15.77Q295.09-17.66 294.1-18.45 293.12-19.23 290.66-19.31L290.66-19.31 290.66-20.77Q291.46-20.73 292.31-20.69 293.16-20.65 294.04-20.65L294.04-20.65Q295.41-20.65 296.66-20.79 297.91-20.93 299-21.21L299-21.21 299-4.35Q299-2.74 299.67-2.14 300.33-1.53 302.07-1.45L302.07-1.45 302.07 0Q301.14-0.04 299.79-0.1 298.44-0.16 297.03-0.16L297.03-0.16Q295.37-0.16 293.64-0.1 291.91-0.04 290.66 0ZM329.36 0.56L329.36 0.56Q327.59 0.56 326.44 0.2 325.29-0.16 324.52-0.52 323.76-0.89 323.19-0.89L323.19-0.89Q322.27-0.89 321.82 0.36L321.82 0.36 320.37 0.36Q320.45-0.6 320.49-1.75 320.53-2.9 320.55-4.38 320.57-5.85 320.53-7.7L320.53-7.7 321.98-7.7Q322.51-4.27 324.22-2.6 325.94-0.93 328.84-0.93L328.84-0.93Q331.02-0.93 332.19-1.85 333.35-2.78 333.35-4.48L333.35-4.48Q333.35-6.05 332.17-7.04 330.98-8.02 328.03-8.87L328.03-8.87Q324.4-9.92 322.71-11.53 321.02-13.15 321.02-15.56L321.02-15.56Q321.02-18.23 322.75-19.78 324.48-21.33 327.43-21.33L327.43-21.33Q329-21.33 330.07-20.97 331.14-20.6 331.9-20.24 332.67-19.88 333.23-19.88L333.23-19.88Q333.68-19.88 333.96-20.16 334.24-20.44 334.44-21.13L334.44-21.13 335.89-21.13Q335.81-20.24 335.77-19.29 335.73-18.35 335.73-17.12 335.73-15.89 335.73-14.15L335.73-14.15 334.28-14.15Q333.88-16.81 332.14-18.35 330.41-19.88 327.95-19.88L327.95-19.88Q326.22-19.88 325.23-19.05 324.24-18.23 324.24-16.73L324.24-16.73Q324.24-15.16 325.55-14.11 326.86-13.06 330.01-12.14L330.01-12.14Q333.52-11.17 335.05-9.66 336.58-8.15 336.58-5.69L336.58-5.69Q336.58-2.78 334.67-1.11 332.75 0.56 329.36 0.56Z" opacity="1" transform="matrix(1,0,0,1,0,0)" fill="#e16a3d" class="wordmark-text-0" data-fill-palette-color="primary" id="text-0"></path></svg></g></svg></g></svg></g></svg></g><g></g></svg></g></svg></g></svg></g></svg></g><defs></defs></svg><rect width="375.07953" height="114.70028000000003" fill="none" stroke="none" visibility="hidden"></rect></g></svg></g></svg>